# xmcd
#
# Track frame offsets:
#	150
#	8637
#	29282
#	47217
#	64232
#	114460
#	136877
#	172057
#	198787
#	217622
#
# Disc length: 3294 seconds
#
# Revision: 1
# Processed by: cddbd v1.5.1PL2 Copyright (c) Steve Scherf et al.
# Submitted via: audiograbber 1.81.03
#
DISCID=810cdc0a
DTITLE=Checkin' Up - That's O.K.
DYEAR=1995
DGENRE=
TTITLE0=Shanghai Shuffle
TTITLE1=Come Back Baby
TTITLE2=Seventh Son
TTITLE3=Feel Like Jumpin'
TTITLE4=Cool Feeling
TTITLE5=Shuffle King
TTITLE6=The Sky is crying
TTITLE7=Rhythm is love
TTITLE8=Akos
TTITLE9=That's O.K.
EXTD=
EXTT0=
EXTT1=
EXTT2=
EXTT3=
EXTT4=
EXTT5=
EXTT6=
EXTT7=
EXTT8=
EXTT9=
PLAYORDER=
